  0
SECTION
  2
HEADER
  9
$ACADVER
  1
AC1009
  9
$INSBASE
 10
0.0
 20
0.0
 30
0.0
  9
$EXTMIN
 10
0.0
 20
0.0
 30
0.0
  9
$EXTMAX
 10
0.0
 20
0.0
 30
0.0
  0
ENDSEC
  0
SECTION
  2
TABLES
  0
TABLE
  2
VPORT
 70
0
  0
ENDTAB
  0
TABLE
  2
LTYPE
 70
1
  0
LTYPE
  2
CONTINUOUS
 70
0
  3
Solid line
 72
65
 73
0
 40
0.0
  0
ENDTAB
  0
TABLE
  2
LAYER
 70
1
  0
LAYER
  2
0
 70
64
 62
7
  6
continuous
  0
ENDTAB
  0
TABLE
  2
STYLE
 70
1
  0
STYLE
  2
STANDARD
 70
0
 40
0
 41
1.0
 50
0.0
 71
0
 42
1
 3
ARIAL.TTF
 4

  0
ENDTAB
  0
TABLE
  2
VIEW
 70
0
  0
ENDTAB
  0
ENDSEC
  0
SECTION
  2
BLOCKS
  0
BLOCK
  8
0
  2
BODY
 70
0
 10
0.0
 20
0.0
 30
0.0
  3
BODY
  0
LINE
  8
0
 62
7
 10
-27.50000129640112
 20
-27.600001296400695
 30
0.0
 11
27.49999870359866
 21
-27.600001296401135
 31
0.0
  0
LINE
  8
0
 62
7
 10
-27.50000129640112
 20
-30.000001296400683
 30
0.0
 11
27.49999870359866
 21
-30.000001296401123
 31
0.0
  0
LINE
  8
0
 62
7
 10
-27.50000129640112
 20
-27.600001296400695
 30
0.0
 11
-27.50000129640112
 21
-30.000001296400683
 31
0.0
  0
LINE
  8
0
 62
7
 10
27.49999870359866
 20
-27.600001296401135
 30
0.0
 11
27.49999870359866
 21
-30.000001296401123
 31
0.0
  0
LINE
  8
0
 62
7
 10
-27.500001072883666
 20
-27.600001072883277
 30
0.0
 11
27.499998927116113
 21
-27.600001072883718
 31
0.0
  0
LINE
  8
0
 62
7
 10
-27.499999678134756
 20
-27.600001296400695
 30
0.0
 11
-27.499999678134756
 21
-27.600001072883277
 31
0.0
  0
LINE
  8
0
 62
7
 10
-27.49999991059291
 20
-30.000001296400683
 30
0.0
 11
-27.49999991059291
 21
-31.599999910592686
 31
0.0
  0
POLYLINE
  8
0
 62
7
 70
0
 66
1
 10
0.0
 20
0.0
 30
0.0
  0
VERTEX
  8
0
 10
-27.500000500679082
 20
-15.200001296400742
 30
0.0
  0
VERTEX
  8
0
 10
-27.500000500679054
 20
-15.200001072883325
 30
0.0
  0
SEQEND
  8
0
  0
POLYLINE
  8
0
 62
7
 70
0
 66
1
 10
0.0
 20
0.0
 30
0.0
  0
VERTEX
  8
0
 10
-27.500000581038325
 20
29.999998703599076
 30
0.0
  0
VERTEX
  8
0
 10
-27.50000058114527
 20
29.999999418854813
 30
0.0
  0
SEQEND
  8
0
  0
LINE
  8
0
 62
7
 10
-27.50000129640112
 20
27.599998703599088
 30
0.0
 11
-27.50000129640112
 21
29.999998703599076
 31
0.0
  0
LINE
  8
0
 62
7
 10
-27.500001072883666
 20
17.599998927116545
 30
0.0
 11
-27.500001072883666
 21
27.599998703599088
 31
0.0
  0
LINE
  8
0
 62
7
 10
-27.50000129640112
 20
15.199998703599137
 30
0.0
 11
-27.50000129640112
 21
17.599998703599127
 31
0.0
  0
LINE
  8
0
 62
7
 10
-27.500001072883666
 20
-15.200001072883325
 30
0.0
 11
-27.500001072883666
 21
15.199998703599135
 31
0.0
  0
LINE
  8
0
 62
7
 10
-27.50000129640112
 20
-17.600001296400734
 30
0.0
 11
-27.50000129640112
 21
-15.200001296400742
 31
0.0
  0
LINE
  8
0
 62
7
 10
-27.500001072883666
 20
-27.600001072883277
 30
0.0
 11
-27.500001072883666
 21
-17.600001296400734
 31
0.0
  0
LINE
  8
0
 62
7
 10
-27.50000010728827
 20
17.599998703599127
 30
0.0
 11
-27.50000010728827
 21
17.599998927116545
 31
0.0
  0
POLYLINE
  8
0
 62
7
 70
0
 66
1
 10
0.0
 20
0.0
 30
0.0
  0
VERTEX
  8
0
 10
27.49999937415102
 20
-30.00000062584887
 30
0.0
  0
VERTEX
  8
0
 10
27.49999941885451
 20
-29.50000058114539
 30
0.0
  0
SEQEND
  8
0
  0
POLYLINE
  8
0
 62
7
 70
0
 66
1
 10
0.0
 20
0.0
 30
0.0
  0
VERTEX
  8
0
 10
27.500000321865024
 20
-26.391066743567645
 30
0.0
  0
VERTEX
  8
0
 10
27.500000277161536
 20
-25.89106678827113
 30
0.0
  0
SEQEND
  8
0
  0
POLYLINE
  8
0
 62
7
 70
0
 66
1
 10
0.0
 20
0.0
 30
0.0
  0
VERTEX
  8
0
 10
27.500000277161536
 20
-25.89106678827113
 30
0.0
  0
VERTEX
  8
0
 10
27.500000265591417
 20
-25.908103886696708
 30
0.0
  0
SEQEND
  8
0
  0
LINE
  8
0
 62
7
 10
27.500000321865024
 20
-27.753954358851512
 30
0.0
 11
27.500000321865024
 21
-26.39106674356765
 31
0.0
  0
LINE
  8
0
 62
7
 10
27.500000276935637
 20
-29.629409245615665
 30
0.0
 11
27.500000321865024
 21
-27.753954358851512
 31
0.0
  0
POLYLINE
  8
0
 62
7
 70
0
 66
1
 10
0.0
 20
0.0
 30
0.0
  0
VERTEX
  8
0
 10
27.50000023375538
 20
-29.99999976624465
 30
0.0
  0
VERTEX
  8
0
 10
27.500000276935637
 20
-29.629409245615665
 30
0.0
  0
SEQEND
  8
0
  0
LINE
  8
0
 62
7
 10
27.50000008940687
 20
-29.999999910593132
 30
0.0
 11
27.50000008940687
 21
-31.599999910593127
 31
0.0
  0
POLYLINE
  8
0
 62
7
 70
0
 66
1
 10
0.0
 20
0.0
 30
0.0
  0
VERTEX
  8
0
 10
27.500000268220834
 20
-31.599999731779192
 30
0.0
  0
VERTEX
  8
0
 10
27.500000423669757
 20
-30.265873857514833
 30
0.0
  0
SEQEND
  8
0
  0
LINE
  8
0
 62
7
 10
27.5000001133634
 20
-16.49999988663666
 30
0.0
 11
27.50000008940687
 21
-17.499999910593182
 31
0.0
  0
POLYLINE
  8
0
 62
7
 70
0
 66
1
 10
0.0
 20
0.0
 30
0.0
  0
VERTEX
  8
0
 10
27.49999941885451
 20
-15.500000581145445
 30
0.0
  0
VERTEX
  8
0
 10
27.49999941885451
 20
-16.50000058114544
 30
0.0
  0
SEQEND
  8
0
  0
POLYLINE
  8
0
 62
7
 70
0
 66
1
 10
0.0
 20
0.0
 30
0.0
  0
VERTEX
  8
0
 10
27.49999941885451
 20
-15.500000581145445
 30
0.0
  0
VERTEX
  8
0
 10
27.499999552964983
 20
-14.000000447035
 30
0.0
  0
SEQEND
  8
0
  0
POLYLINE
  8
0
 62
7
 70
0
 66
1
 10
0.0
 20
0.0
 30
0.0
  0
VERTEX
  8
0
 10
27.49999960450548
 20
-10.660644653197606
 30
0.0
  0
VERTEX
  8
0
 10
27.499999597668477
 20
-10.654762307093431
 30
0.0
  0
SEQEND
  8
0
  0
POLYLINE
  8
0
 62
7
 70
0
 66
1
 10
0.0
 20
0.0
 30
0.0
  0
VERTEX
  8
0
 10
27.499999597668477
 20
-10.654762307093431
 30
0.0
  0
VERTEX
  8
0
 10
27.499999552964983
 20
-11.154762351796915
 30
0.0
  0
SEQEND
  8
0
  0
LINE
  8
0
 62
7
 10
27.49999960450548
 20
-10.660644653197606
 30
0.0
 11
27.50000008940687
 21
-11.499999910593207
 31
0.0
  0
POLYLINE
  8
0
 62
7
 70
0
 66
1
 10
0.0
 20
0.0
 30
0.0
  0
VERTEX
  8
0
 10
27.500000447034797
 20
-11.499999552965338
 30
0.0
  0
VERTEX
  8
0
 10
27.500000536441778
 20
-10.499999463558375
 30
0.0
  0
SEQEND
  8
0
  0
POLYLINE
  8
0
 62
7
 70
0
 66
1
 10
0.0
 20
0.0
 30
0.0
  0
VERTEX
  8
0
 10
27.500000536441778
 20
-8.499999463558384
 30
0.0
  0
VERTEX
  8
0
 10
27.500000447034797
 20
-7.499999552965354
 30
0.0
  0
SEQEND
  8
0
  0
POLYLINE
  8
0
 62
7
 70
0
 66
1
 10
0.0
 20
0.0
 30
0.0
  0
VERTEX
  8
0
 10
27.500000447034797
 20
7.500000447034585
 30
0.0
  0
VERTEX
  8
0
 10
27.500000536441778
 20
8.500000536441549
 30
0.0
  0
SEQEND
  8
0
  0
POLYLINE
  8
0
 62
7
 70
0
 66
1
 10
0.0
 20
0.0
 30
0.0
  0
VERTEX
  8
0
 10
27.500000536441778
 20
10.50000053644154
 30
0.0
  0
VERTEX
  8
0
 10
27.500000447034797
 20
11.50000044703457
 30
0.0
  0
SEQEND
  8
0
  0
LINE
  8
0
 62
7
 10
27.50000008940687
 20
11.5000000894067
 30
0.0
 11
27.49999969391246
 21
10.815405856377339
 31
0.0
  0
POLYLINE
  8
0
 62
7
 70
0
 66
1
 10
0.0
 20
0.0
 30
0.0
  0
VERTEX
  8
0
 10
27.499999642371964
 20
11.309523451895675
 30
0.0
  0
VERTEX
  8
0
 10
27.49999968707545
 20
10.809523496599159
 30
0.0
  0
SEQEND
  8
0
  0
POLYLINE
  8
0
 62
7
 70
0
 66
1
 10
0.0
 20
0.0
 30
0.0
  0
VERTEX
  8
0
 10
27.49999968707545
 20
10.809523496599159
 30
0.0
  0
VERTEX
  8
0
 10
27.49999969391246
 20
10.81540585637734
 30
0.0
  0
SEQEND
  8
0
  0
POLYLINE
  8
0
 62
7
 70
0
 66
1
 10
0.0
 20
0.0
 30
0.0
  0
VERTEX
  8
0
 10
27.499999687075455
 20
12.499999687075345
 30
0.0
  0
VERTEX
  8
0
 10
27.499999642371964
 20
11.999999642371865
 30
0.0
  0
SEQEND
  8
0
  0
POLYLINE
  8
0
 62
7
 70
0
 66
1
 10
0.0
 20
0.0
 30
0.0
  0
VERTEX
  8
0
 10
27.499999821185927
 20
12.499999821185796
 30
0.0
  0
VERTEX
  8
0
 10
27.49999999999989
 20
14.499999999999721
 30
0.0
  0
SEQEND
  8
0
  0
LINE
  8
0
 62
7
 10
27.50000010728827
 20
17.50000010728807
 30
0.0
 11
27.50000015199176
 21
15.500000151991562
 31
0.0
  0
POLYLINE
  8
0
 62
7
 70
0
 66
1
 10
0.0
 20
0.0
 30
0.0
  0
VERTEX
  8
0
 10
27.499999858661045
 20
27.272726313556177
 30
0.0
  0
VERTEX
  8
0
 10
27.499999785423135
 20
27.69914980396723
 30
0.0
  0
SEQEND
  8
0
  0
POLYLINE
  8
0
 62
7
 70
0
 66
1
 10
0.0
 20
0.0
 30
0.0
  0
VERTEX
  8
0
 10
27.499999508261492
 20
28.19914952680563
 30
0.0
  0
VERTEX
  8
0
 10
27.499999552964983
 20
27.699149571509118
 30
0.0
  0
SEQEND
  8
0
  0
POLYLINE
  8
0
 62
7
 70
0
 66
1
 10
0.0
 20
0.0
 30
0.0
  0
VERTEX
  8
0
 10
27.499999508261492
 20
28.999999508261343
 30
0.0
  0
VERTEX
  8
0
 10
27.49999941885451
 20
29.999999418854372
 30
0.0
  0
SEQEND
  8
0
  0
LINE
  8
0
 62
7
 10
27.49999870359866
 20
27.599998703598647
 30
0.0
 11
27.49999870359866
 21
29.999998703598635
 31
0.0
  0
LINE
  8
0
 62
7
 10
27.499998927116113
 20
17.599998927116104
 30
0.0
 11
27.499998927116113
 21
27.599998927116065
 31
0.0
  0
LINE
  8
0
 62
7
 10
27.49999870359866
 20
15.199998703598697
 30
0.0
 11
27.49999870359866
 21
17.599998703598686
 31
0.0
  0
LINE
  8
0
 62
7
 10
27.499998927116113
 20
-15.200001072883765
 30
0.0
 11
27.499998927116113
 21
15.199998927116113
 31
0.0
  0
LINE
  8
0
 62
7
 10
27.49999870359866
 20
-17.600001296401174
 30
0.0
 11
27.49999870359866
 21
-15.200001296401183
 31
0.0
  0
LINE
  8
0
 62
7
 10
27.499998927116113
 20
-27.600001072883718
 30
0.0
 11
27.499998927116113
 21
-17.600001072883757
 31
0.0
  0
POLYLINE
  8
0
 62
7
 70
0
 66
1
 10
0.0
 20
0.0
 30
0.0
  0
VERTEX
  8
0
 10
27.500000312924325
 20
-20.99999968707575
 30
0.0
  0
VERTEX
  8
0
 10
27.500000223517343
 20
-19.99999977648272
 30
0.0
  0
SEQEND
  8
0
  0
POLYLINE
  8
0
 62
7
 70
0
 66
1
 10
0.0
 20
0.0
 30
0.0
  0
VERTEX
  8
0
 10
27.49999937415102
 20
-19.500000625848912
 30
0.0
  0
VERTEX
  8
0
 10
27.49999941885451
 20
-20.000000581145425
 30
0.0
  0
SEQEND
  8
0
  0
POLYLINE
  8
0
 62
7
 70
0
 66
1
 10
0.0
 20
0.0
 30
0.0
  0
VERTEX
  8
0
 10
27.49999941885451
 20
-17.50000058114544
 30
0.0
  0
VERTEX
  8
0
 10
27.49999937415102
 20
-18.00000062584892
 30
0.0
  0
SEQEND
  8
0
  0
LINE
  8
0
 62
7
 10
27.49999991059291
 20
-18.500000089407113
 30
0.0
 11
27.49999991059291
 21
-17.500000089407116
 31
0.0
  0
LINE
  8
0
 62
7
 10
27.500000380768046
 20
-18.095796134162377
 30
0.0
 11
27.500000181967792
 21
-17.49999981803228
 31
0.0
  0
POLYLINE
  8
0
 62
7
 70
0
 66
1
 10
0.0
 20
0.0
 30
0.0
  0
VERTEX
  8
0
 10
27.500000447034797
 20
-19.061721894184704
 30
0.0
  0
VERTEX
  8
0
 10
27.500000380768046
 20
-18.09579613416238
 30
0.0
  0
SEQEND
  8
0
  0
LINE
  8
0
 62
7
 10
27.500000447034797
 20
-23.561721894184682
 30
0.0
 11
27.500000447034797
 21
-19.0617218941847
 31
0.0
  0
POLYLINE
  8
0
 62
7
 70
0
 66
1
 10
0.0
 20
0.0
 30
0.0
  0
VERTEX
  8
0
 10
27.500000380768046
 20
-24.527647786740488
 30
0.0
  0
VERTEX
  8
0
 10
27.500000447034797
 20
-23.561721894184682
 30
0.0
  0
SEQEND
  8
0
  0
LINE
  8
0
 62
7
 10
27.499999430424626
 20
-27.375790434671043
 30
0.0
 11
27.500000380768046
 21
-24.52764778674049
 31
0.0
  0
POLYLINE
  8
0
 62
7
 70
0
 66
1
 10
0.0
 20
0.0
 30
0.0
  0
VERTEX
  8
0
 10
27.499999407284395
 20
-26.409864631522204
 30
0.0
  0
VERTEX
  8
0
 10
27.499999418854507
 20
-27.392827533096625
 30
0.0
  0
SEQEND
  8
0
  0
POLYLINE
  8
0
 62
7
 70
0
 66
1
 10
0.0
 20
0.0
 30
0.0
  0
VERTEX
  8
0
 10
27.499999418854507
 20
-27.392827533096625
 30
0.0
  0
VERTEX
  8
0
 10
27.499999430424626
 20
-27.375790434671046
 30
0.0
  0
SEQEND
  8
0
  0
POLYLINE
  8
0
 62
7
 70
0
 66
1
 10
0.0
 20
0.0
 30
0.0
  0
VERTEX
  8
0
 10
27.499999844013466
 20
25.477623973793104
 30
0.0
  0
VERTEX
  8
0
 10
27.499999785423135
 20
25.818762766121946
 30
0.0
  0
SEQEND
  8
0
  0
LINE
  8
0
 62
7
 10
27.500000144763387
 20
20.67357658111422
 30
0.0
 11
27.499999844013466
 21
25.477623973793108
 31
0.0
  0
POLYLINE
  8
0
 62
7
 70
0
 66
1
 10
0.0
 20
0.0
 30
0.0
  0
VERTEX
  8
0
 10
27.500000160932455
 20
20.10000016093224
 30
0.0
  0
VERTEX
  8
0
 10
27.500000144763384
 20
20.673576581114215
 30
0.0
  0
SEQEND
  8
0
  0
LINE
  8
0
 62
7
 10
27.500000160932455
 20
18.700000160932245
 30
0.0
 11
27.500000160932455
 21
20.10000016093224
 31
0.0
  0
LINE
  8
0
 62
7
 10
27.49999989271151
 20
14.49999989271136
 30
0.0
 11
27.49999989271151
 21
18.699999892711343
 31
0.0
  0
POLYLINE
  8
0
 62
7
 70
0
 66
1
 10
0.0
 20
0.0
 30
0.0
  0
VERTEX
  8
0
 10
27.499999821185927
 20
13.69999982118579
 30
0.0
  0
VERTEX
  8
0
 10
27.49999989271151
 20
14.49999989271136
 30
0.0
  0
SEQEND
  8
0
  0
LINE
  8
0
 62
7
 10
27.49999870359866
 20
-17.600001072883757
 30
0.0
 11
27.499998927116113
 21
-17.600001072883757
 31
0.0
  0
LINE
  8
0
 62
7
 10
27.49999870359866
 20
-30.00000062584887
 30
0.0
 11
27.49999937415102
 21
-30.00000062584887
 31
0.0
  0
LINE
  8
0
 62
7
 10
27.499998703598663
 20
-27.753954358851512
 30
0.0
 11
27.500000321865024
 21
-27.753954358851512
 31
0.0
  0
LINE
  8
0
 62
7
 10
27.499998703598663
 20
-29.99999976624465
 30
0.0
 11
27.50000023375538
 21
-29.99999976624465
 31
0.0
  0
LINE
  8
0
 62
7
 10
27.49999870359866
 20
-29.999999910593132
 30
0.0
 11
27.50000008940687
 21
-29.999999910593132
 31
0.0
  0
LINE
  8
0
 62
7
 10
-27.49999991059291
 20
-31.599999910592686
 30
0.0
 11
27.50000008940687
 21
-31.599999910593127
 31
0.0
  0
LINE
  8
0
 62
7
 10
27.499998703598656
 20
-16.49999988663666
 30
0.0
 11
27.5000001133634
 21
-16.49999988663666
 31
0.0
  0
LINE
  8
0
 62
7
 10
27.49999870359866
 20
-17.499999910593182
 30
0.0
 11
27.50000008940687
 21
-17.499999910593182
 31
0.0
  0
LINE
  8
0
 62
7
 10
-20.7499994486536
 20
-11.49999991059282
 30
0.0
 11
-19.250003144148696
 21
-11.499999910592832
 31
0.0
  0
LINE
  8
0
 62
7
 10
-16.757361995089866
 20
-11.499999910592852
 30
0.0
 11
-16.757361548054988
 21
-11.499999910592852
 31
0.0
  0
LINE
  8
0
 62
7
 10
19.250000551346243
 20
-11.49999991059314
 30
0.0
 11
20.749996855851148
 21
-11.499999910593152
 31
0.0
  0
LINE
  8
0
 62
7
 10
23.242638004909974
 20
-11.499999910593171
 30
0.0
 11
23.24263845194484
 21
-11.499999910593171
 31
0.0
  0
LINE
  8
0
 62
7
 10
27.499998927116113
 20
-11.499999910593207
 30
0.0
 11
27.50000008940687
 21
-11.499999910593207
 31
0.0
  0
LINE
  8
0
 62
7
 10
19.521436326013546
 20
-11.345238095238205
 30
0.0
 11
20.478561081183837
 21
-11.345238095238214
 31
0.0
  0
LINE
  8
0
 62
7
 10
-20.47856367398629
 20
-11.345238095237885
 30
0.0
 11
-19.52143891881601
 21
-11.345238095237892
 31
0.0
  0
LINE
  8
0
 62
7
 10
27.500000089406665
 20
-11.499999552965338
 30
0.0
 11
27.500000447034797
 21
-11.499999552965338
 31
0.0
  0
LINE
  8
0
 62
7
 10
27.499998927116113
 20
-7.499999552965353
 30
0.0
 11
27.500000447034797
 21
-7.499999552965353
 31
0.0
  0
LINE
  8
0
 62
7
 10
27.499998927116113
 20
7.500000447034586
 30
0.0
 11
27.500000447034797
 21
7.500000447034586
 31
0.0
  0
LINE
  8
0
 62
7
 10
-20.750003620976663
 20
11.500000447034957
 30
0.0
 11
-19.249998971825633
 21
11.500000447034944
 31
0.0
  0
LINE
  8
0
 62
7
 10
19.249996379023177
 20
11.500000447034637
 30
0.0
 11
20.750001028174207
 21
11.500000447034624
 31
0.0
  0
LINE
  8
0
 62
7
 10
27.499998927116113
 20
11.50000044703457
 30
0.0
 11
27.500000447034797
 21
11.50000044703457
 31
0.0
  0
LINE
  8
0
 62
7
 10
-20.750003144141573
 20
11.500000089407088
 30
0.0
 11
-19.249999448660724
 21
11.500000089407076
 31
0.0
  0
LINE
  8
0
 62
7
 10
19.249996855858274
 20
11.500000089406768
 30
0.0
 11
20.75000055133911
 21
11.500000089406756
 31
0.0
  0
LINE
  8
0
 62
7
 10
27.499998927116113
 20
11.5000000894067
 30
0.0
 11
27.50000008940687
 21
11.5000000894067
 31
0.0
  0
POLYLINE
  8
0
 62
7
 70
0
 66
1
 10
0.0
 20
0.0
 30
0.0
  0
VERTEX
  8
0
 10
20.47856550576758
 20
11.345238095237885
 30
0.0
  0
VERTEX
  8
0
 10
19.52143449423226
 20
11.345238095237892
 30
0.0
  0
SEQEND
  8
0
  0
LINE
  8
0
 62
7
 10
20.47856550576758
 20
11.345238095237889
 30
0.0
 11
19.521434494232256
 21
11.345238095237896
 31
0.0
  0
POLYLINE
  8
0
 62
7
 70
0
 66
1
 10
0.0
 20
0.0
 30
0.0
  0
VERTEX
  8
0
 10
-19.52143449423226
 20
11.345238095238205
 30
0.0
  0
VERTEX
  8
0
 10
-20.47856550576758
 20
11.345238095238212
 30
0.0
  0
SEQEND
  8
0
  0
LINE
  8
0
 62
7
 10
-19.52143449423226
 20
11.345238095238207
 30
0.0
 11
-20.47856550576758
 21
11.345238095238214
 31
0.0
  0
POLYLINE
  8
0
 62
7
 70
0
 66
1
 10
0.0
 20
0.0
 30
0.0
  0
VERTEX
  8
0
 10
20.381137989838226
 20
11.309523451895732
 30
0.0
  0
VERTEX
  8
0
 10
19.618861294905763
 20
11.309523451895737
 30
0.0
  0
SEQEND
  8
0
  0
POLYLINE
  8
0
 62
7
 70
0
 66
1
 10
0.0
 20
0.0
 30
0.0
  0
VERTEX
  8
0
 10
-19.61886201016161
 20
11.309523451896052
 30
0.0
  0
VERTEX
  8
0
 10
-20.381138705094077
 20
11.309523451896057
 30
0.0
  0
SEQEND
  8
0
  0
POLYLINE
  8
0
 62
7
 70
0
 66
1
 10
0.0
 20
0.0
 30
0.0
  0
VERTEX
  8
0
 10
-21.1456442813668
 20
11.999999642372252
 30
0.0
  0
VERTEX
  8
0
 10
-21.25000031292435
 20
12.499999687075736
 30
0.0
  0
SEQEND
  8
0
  0
LINE
  8
0
 62
7
 10
-21.250001296400757
 20
12.499999687075736
 30
0.0
 11
-21.25000031292435
 21
12.499999687075736
 31
0.0
  0
LINE
  8
0
 62
7
 10
24.242638273130876
 20
12.499999821185822
 30
0.0
 11
24.242638720165747
 21
12.499999821185822
 31
0.0
  0
LINE
  8
0
 62
7
 10
27.499998927116113
 20
12.499999821185796
 30
0.0
 11
27.499999821185927
 21
12.499999821185796
 31
0.0
  0
POLYLINE
  8
0
 62
7
 70
0
 66
1
 10
0.0
 20
0.0
 30
0.0
  0
VERTEX
  8
0
 10
18.749999821185963
 20
12.499999821185867
 30
0.0
  0
VERTEX
  8
0
 10
19.099832120218085
 20
13.367293368608031
 30
0.0
  0
SEQEND
  8
0
  0
LINE
  8
0
 62
7
 10
-15.75736172686897
 20
12.499999821186142
 30
0.0
 11
-15.757361279834095
 21
12.499999821186142
 31
0.0
  0
LINE
  8
0
 62
7
 10
18.7499987035992
 20
12.499999821185867
 30
0.0
 11
18.749999821185963
 21
12.499999821185867
 31
0.0
  0
POLYLINE
  8
0
 62
7
 70
0
 66
1
 10
0.0
 20
0.0
 30
0.0
  0
VERTEX
  8
0
 10
-21.250000178813877
 20
12.499999821186186
 30
0.0
  0
VERTEX
  8
0
 10
-20.90016778588533
 20
13.367293466063847
 30
0.0
  0
SEQEND
  8
0
  0
LINE
  8
0
 62
7
 10
-21.250001296400644
 20
12.499999821186186
 30
0.0
 11
-21.250000178813877
 21
12.499999821186186
 31
0.0
  0
LINE
  8
0
 62
7
 10
27.49999989271151
 20
17.50000010728807
 30
0.0
 11
27.50000010728827
 21
17.50000010728807
 31
0.0
  0
LINE
  8
0
 62
7
 10
27.49999989271151
 20
15.500000151991562
 30
0.0
 11
27.50000015199176
 21
15.500000151991562
 31
0.0
  0
LINE
  8
0
 62
7
 10
27.499998703598663
 20
27.69914980396723
 30
0.0
 11
27.499999785423135
 21
27.69914980396723
 31
0.0
  0
LINE
  8
0
 62
7
 10
27.49999870359866
 20
27.699149571509118
 30
0.0
 11
27.499999552964983
 21
27.699149571509118
 31
0.0
  0
LINE
  8
0
 62
7
 10
-27.50000058114527
 20
29.999999418854813
 30
0.0
 11
27.49999941885451
 21
29.999999418854372
 31
0.0
  0
LINE
  8
0
 62
7
 10
-27.50000129640112
 20
29.999998703599076
 30
0.0
 11
27.49999870359866
 21
29.999998703598635
 31
0.0
  0
LINE
  8
0
 62
7
 10
-27.50000129640112
 20
27.599998703599088
 30
0.0
 11
27.49999870359866
 21
27.599998703598647
 31
0.0
  0
LINE
  8
0
 62
7
 10
27.49999870359866
 20
27.599998927116065
 30
0.0
 11
27.499998927116113
 21
27.599998927116065
 31
0.0
  0
LINE
  8
0
 62
7
 10
-27.500001072883666
 20
17.599998927116545
 30
0.0
 11
27.499998927116113
 21
17.599998927116104
 31
0.0
  0
LINE
  8
0
 62
7
 10
-27.50000129640112
 20
17.599998703599127
 30
0.0
 11
27.49999870359866
 21
17.599998703598686
 31
0.0
  0
LINE
  8
0
 62
7
 10
21.54263939071797
 20
15.199998703598744
 30
0.0
 11
27.49999870359866
 21
15.199998703598697
 31
0.0
  0
LINE
  8
0
 62
7
 10
19.999998703598692
 20
16.742639390718033
 30
0.0
 11
21.54263939071797
 21
15.199998703598743
 31
0.0
  0
LINE
  8
0
 62
7
 10
18.457358016479418
 20
15.19999870359877
 30
0.0
 11
19.999998703598695
 21
16.742639390718033
 31
0.0
  0
LINE
  8
0
 62
7
 10
-18.457360609281867
 20
15.199998703599064
 30
0.0
 11
18.457358016479414
 21
15.19999870359877
 31
0.0
  0
LINE
  8
0
 62
7
 10
-20.000001296401145
 20
16.742639390718352
 30
0.0
 11
-18.457360609281867
 21
15.199998703599064
 31
0.0
  0
LINE
  8
0
 62
7
 10
-21.542641983520422
 20
15.199998703599089
 30
0.0
 11
-20.000001296401145
 21
16.742639390718352
 31
0.0
  0
LINE
  8
0
 62
7
 10
-27.50000129640112
 20
15.199998703599137
 30
0.0
 11
-21.54264198352042
 21
15.199998703599089
 31
0.0
  0
LINE
  8
0
 62
7
 10
-15.75736060928186
 20
12.499998703599035
 30
0.0
 11
-15.757360385764422
 21
12.499998927116472
 31
0.0
  0
LINE
  8
0
 62
7
 10
-15.757360385764425
 20
12.499998927116469
 30
0.0
 11
-18.457360162247
 21
15.199998703599066
 31
0.0
  0
LINE
  8
0
 62
7
 10
24.24263939071798
 20
12.499998703598711
 30
0.0
 11
24.242639614235422
 21
12.499998927116154
 31
0.0
  0
LINE
  8
0
 62
7
 10
24.242639614235415
 20
12.49999892711615
 30
0.0
 11
21.542639837752844
 21
15.199998703598744
 31
0.0
  0
LINE
  8
0
 62
7
 10
27.49999870359866
 20
15.199998927116113
 30
0.0
 11
27.499998927116113
 21
15.199998927116113
 31
0.0
  0
LINE
  8
0
 62
7
 10
21.542639614235423
 20
-15.200001072883717
 30
0.0
 11
27.499998927116113
 21
-15.200001072883765
 31
0.0
  0
LINE
  8
0
 62
7
 10
24.24263939071798
 20
-12.500001296401182
 30
0.0
 11
24.242639614235415
 21
-12.500001072883746
 31
0.0
  0
LINE
  8
0
 62
7
 10
24.24263961423541
 20
-12.500001072883753
 30
0.0
 11
19.99999892711614
 21
-8.25736038576445
 31
0.0
  0
LINE
  8
0
 62
7
 10
19.99999892711615
 20
-8.257360385764446
 30
0.0
 11
19.999998703598713
 21
-8.257360609281882
 31
0.0
  0
LINE
  8
0
 62
7
 10
-18.45736038576441
 20
-15.200001072883397
 30
0.0
 11
18.457357792961997
 21
-15.200001072883692
 31
0.0
  0
LINE
  8
0
 62
7
 10
-15.757360609281857
 20
-12.500001296400866
 30
0.0
 11
-15.757360385764422
 21
-12.500001072883428
 31
0.0
  0
LINE
  8
0
 62
7
 10
-15.75736038576442
 20
-12.500001072883432
 30
0.0
 11
-20.000001072883688
 21
-8.257360385764127
 31
0.0
  0
LINE
  8
0
 62
7
 10
-20.00000107288369
 20
-8.257360385764127
 30
0.0
 11
-20.000001296401127
 21
-8.257360609281562
 31
0.0
  0
LINE
  8
0
 62
7
 10
-27.500001072883666
 20
-15.200001072883325
 30
0.0
 11
-21.542642207037844
 21
-15.200001072883373
 31
0.0
  0
LINE
  8
0
 62
7
 10
-27.50000129640112
 20
-15.200001296400742
 30
0.0
 11
-21.54264198352042
 21
-15.20000129640079
 31
0.0
  0
LINE
  8
0
 62
7
 10
-20.000001296401145
 20
-16.74264198352008
 30
0.0
 11
-21.542641983520422
 21
-15.20000129640079
 31
0.0
  0
LINE
  8
0
 62
7
 10
-18.457360609281867
 20
-15.200001296400815
 30
0.0
 11
-20.000001296401145
 21
-16.74264198352008
 31
0.0
  0
LINE
  8
0
 62
7
 10
-18.457360609281864
 20
-15.200001296400815
 30
0.0
 11
18.457358016479414
 21
-15.20000129640111
 31
0.0
  0
LINE
  8
0
 62
7
 10
19.999998703598692
 20
-16.7426419835204
 30
0.0
 11
18.457358016479414
 21
-15.200001296401108
 31
0.0
  0
LINE
  8
0
 62
7
 10
21.542639390717973
 20
-15.200001296401135
 30
0.0
 11
19.999998703598692
 21
-16.7426419835204
 31
0.0
  0
LINE
  8
0
 62
7
 10
21.54263939071797
 20
-15.200001296401135
 30
0.0
 11
27.49999870359866
 21
-15.200001296401183
 31
0.0
  0
LINE
  8
0
 62
7
 10
-27.50000129640112
 20
-17.600001296400734
 30
0.0
 11
27.49999870359866
 21
-17.600001296401174
 31
0.0
  0
LINE
  8
0
 62
7
 10
27.499998927116113
 20
-19.999999776482724
 30
0.0
 11
27.500000223517343
 21
-19.999999776482724
 31
0.0
  0
LINE
  8
0
 62
7
 10
27.499998927116113
 20
-20.00000058114543
 30
0.0
 11
27.49999941885451
 21
-20.00000058114543
 31
0.0
  0
LINE
  8
0
 62
7
 10
27.49999870359866
 20
-17.500000581145436
 30
0.0
 11
27.49999941885451
 21
-17.500000581145436
 31
0.0
  0
LINE
  8
0
 62
7
 10
27.49999870359866
 20
-17.500000089407116
 30
0.0
 11
27.49999991059291
 21
-17.500000089407116
 31
0.0
  0
LINE
  8
0
 62
7
 10
27.499998927116113
 20
-18.500000089407113
 30
0.0
 11
27.49999991059291
 21
-18.500000089407113
 31
0.0
  0
LINE
  8
0
 62
7
 10
27.49999892711611
 20
25.818762766121946
 30
0.0
 11
27.499999785423135
 21
25.818762766121946
 31
0.0
  0
LINE
  8
0
 62
7
 10
27.499998927116113
 20
18.700000160932245
 30
0.0
 11
27.500000160932455
 21
18.700000160932245
 31
0.0
  0
LINE
  8
0
 62
7
 10
27.499998927116113
 20
18.699999892711343
 30
0.0
 11
27.49999989271151
 21
18.699999892711343
 31
0.0
  0
LINE
  8
0
 62
7
 10
23.042638273130873
 20
13.699999821185827
 30
0.0
 11
23.04263872016576
 21
13.699999821185827
 31
0.0
  0
LINE
  8
0
 62
7
 10
27.499998927116113
 20
13.69999982118579
 30
0.0
 11
27.499999821185927
 21
13.69999982118579
 31
0.0
  0
LINE
  8
0
 62
7
 10
-16.95736172686896
 20
13.699999821186147
 30
0.0
 11
-16.95736127983409
 21
13.699999821186147
 31
0.0
  0
LINE
  8
0
 62
7
 10
27.49999870359866
 20
-16.50000058114544
 30
0.0
 11
27.49999941885451
 21
-16.50000058114544
 31
0.0
  0
LINE
  8
0
 62
7
 10
27.49999870359866
 20
-15.500000581145445
 30
0.0
 11
27.49999941885451
 21
-15.500000581145445
 31
0.0
  0
LINE
  8
0
 62
7
 10
24.24263840724132
 20
12.499999687075372
 30
0.0
 11
24.242638854276198
 21
12.499999687075372
 31
0.0
  0
LINE
  8
0
 62
7
 10
27.499998927116113
 20
12.499999687075345
 30
0.0
 11
27.499999687075455
 21
12.499999687075345
 31
0.0
  0
POLYLINE
  8
0
 62
7
 70
0
 66
1
 10
0.0
 20
0.0
 30
0.0
  0
VERTEX
  8
0
 10
20.478565505767584
 20
11.345238095237887
 30
0.0
  0
VERTEX
  8
0
 10
19.521434494232263
 20
11.345238095237894
 30
0.0
  0
SEQEND
  8
0
  0
POLYLINE
  8
0
 62
7
 70
0
 66
1
 10
0.0
 20
0.0
 30
0.0
  0
VERTEX
  8
0
 10
-19.521434494232263
 20
11.345238095238207
 30
0.0
  0
VERTEX
  8
0
 10
-20.47856550576758
 20
11.345238095238214
 30
0.0
  0
SEQEND
  8
0
  0
POLYLINE
  8
0
 62
7
 70
0
 66
1
 10
0.0
 20
0.0
 30
0.0
  0
VERTEX
  8
0
 10
18.85435571863304
 20
11.999999642371932
 30
0.0
  0
VERTEX
  8
0
 10
18.74999968707549
 20
12.499999687075416
 30
0.0
  0
SEQEND
  8
0
  0
POLYLINE
  8
0
 62
7
 70
0
 66
1
 10
0.0
 20
0.0
 30
0.0
  0
VERTEX
  8
0
 10
19.999998703598692
 20
13.749998703598761
 30
0.0
  0
VERTEX
  8
0
 10
19.999998703598692
 20
11.249998703598772
 30
0.0
  0
VERTEX
  8
0
 10
19.999998703598692
 20
13.749998703598761
 30
0.0
  0
SEQEND
  8
0
  0
POLYLINE
  8
0
 62
7
 70
0
 66
1
 10
0.0
 20
0.0
 30
0.0
  0
VERTEX
  8
0
 10
-20.000001296401148
 20
13.749998703599081
 30
0.0
  0
VERTEX
  8
0
 10
-20.000001296401148
 20
11.249998703599092
 30
0.0
  0
VERTEX
  8
0
 10
-20.000001296401148
 20
13.749998703599081
 30
0.0
  0
SEQEND
  8
0
  0
LINE
  8
0
 62
7
 10
18.457358016479414
 20
15.19999870359877
 30
0.0
 11
21.54263939071797
 21
15.199998703598744
 31
0.0
  0
LINE
  8
0
 62
7
 10
-21.54264198352042
 20
15.199998703599089
 30
0.0
 11
-18.457360609281867
 21
15.199998703599064
 31
0.0
  0
LINE
  8
0
 62
7
 10
-24.242641983520414
 20
12.49999870359912
 30
0.0
 11
-21.542641983520422
 21
15.199998703599089
 31
0.0
  0
LINE
  8
0
 62
7
 10
-20.000001296401145
 20
8.257358016479817
 30
0.0
 11
-24.242641983520414
 21
12.499998703599118
 31
0.0
  0
LINE
  8
0
 62
7
 10
-15.757360609281877
 20
12.499998703599053
 30
0.0
 11
-20.000001296401145
 21
8.257358016479817
 31
0.0
  0
LINE
  8
0
 62
7
 10
-18.457360609281867
 20
15.199998703599064
 30
0.0
 11
-15.757360609281877
 21
12.49999870359905
 31
0.0
  0
LINE
  8
0
 62
7
 10
15.757358016479424
 20
12.4999987035988
 30
0.0
 11
18.457358016479418
 21
15.19999870359877
 31
0.0
  0
LINE
  8
0
 62
7
 10
19.999998703598692
 20
8.257358016479497
 30
0.0
 11
15.757358016479422
 21
12.499998703598798
 31
0.0
  0
LINE
  8
0
 62
7
 10
24.24263939071796
 20
12.499998703598733
 30
0.0
 11
19.999998703598692
 21
8.257358016479497
 31
0.0
  0
LINE
  8
0
 62
7
 10
21.54263939071797
 20
15.199998703598743
 30
0.0
 11
24.24263939071796
 21
12.499998703598731
 31
0.0
  0
LINE
  8
0
 62
7
 10
24.24263939071796
 20
-12.500001296401168
 30
0.0
 11
21.542639390717973
 21
-15.200001296401135
 31
0.0
  0
LINE
  8
0
 62
7
 10
19.999998703598692
 20
-8.257360609281864
 30
0.0
 11
24.24263939071796
 21
-12.500001296401166
 31
0.0
  0
LINE
  8
0
 62
7
 10
15.757358016479426
 20
-12.5000012964011
 30
0.0
 11
19.999998703598692
 21
-8.257360609281864
 31
0.0
  0
LINE
  8
0
 62
7
 10
18.457358016479414
 20
-15.200001296401108
 30
0.0
 11
15.757358016479422
 21
-12.500001296401098
 31
0.0
  0
LINE
  8
0
 62
7
 10
-15.757360609281877
 20
-12.500001296400848
 30
0.0
 11
-18.457360609281867
 21
-15.200001296400815
 31
0.0
  0
LINE
  8
0
 62
7
 10
-20.000001296401145
 20
-8.257360609281545
 30
0.0
 11
-15.757360609281877
 21
-12.500001296400846
 31
0.0
  0
LINE
  8
0
 62
7
 10
-24.242641983520414
 20
-12.50000129640078
 30
0.0
 11
-20.000001296401145
 21
-8.257360609281545
 31
0.0
  0
LINE
  8
0
 62
7
 10
-21.542641983520422
 20
-15.20000129640079
 30
0.0
 11
-24.242641983520414
 21
-12.500001296400779
 31
0.0
  0
LINE
  8
0
 62
7
 10
-21.54264198352042
 20
-15.20000129640079
 30
0.0
 11
-18.457360609281864
 21
-15.200001296400815
 31
0.0
  0
LINE
  8
0
 62
7
 10
18.457358016479414
 20
-15.20000129640111
 30
0.0
 11
21.54263939071797
 21
-15.200001296401135
 31
0.0
  0
POLYLINE
  8
0
 62
7
 70
0
 66
1
 10
0.0
 20
0.0
 30
0.0
  0
VERTEX
  8
0
 10
-20.000001296401148
 20
-11.25000129640082
 30
0.0
  0
VERTEX
  8
0
 10
-20.000001296401148
 20
-13.750001296400809
 30
0.0
  0
VERTEX
  8
0
 10
-20.000001296401148
 20
-11.25000129640082
 30
0.0
  0
SEQEND
  8
0
  0
POLYLINE
  8
0
 62
7
 70
0
 66
1
 10
0.0
 20
0.0
 30
0.0
  0
VERTEX
  8
0
 10
19.999998703598692
 20
-11.25000129640114
 30
0.0
  0
VERTEX
  8
0
 10
19.999998703598692
 20
-13.750001296401129
 30
0.0
  0
VERTEX
  8
0
 10
19.999998703598692
 20
-11.25000129640114
 30
0.0
  0
SEQEND
  8
0
  0
LINE
  8
0
 62
7
 10
-15.757361592758517
 20
12.499999687075691
 30
0.0
 11
-15.757361145723646
 21
12.499999687075691
 31
0.0
  0
LINE
  8
0
 62
7
 10
18.74999870359908
 20
12.499999687075416
 30
0.0
 11
18.74999968707549
 21
12.499999687075416
 31
0.0
  0
LINE
  8
0
 62
7
 10
27.49999870359866
 20
-30.00000062584887
 30
0.0
 11
27.49999937415102
 21
-30.00000062584887
 31
0.0
  0
LINE
  8
0
 62
7
 10
27.49999870359866
 20
-29.50000058114539
 30
0.0
 11
27.49999941885451
 21
-29.50000058114539
 31
0.0
  0
LINE
  8
0
 62
7
 10
27.499999920149477
 20
-25.90810388669671
 30
0.0
 11
27.500000265591417
 21
-25.90810388669671
 31
0.0
  0
LINE
  8
0
 62
7
 10
27.49999975899864
 20
-26.391066743567645
 30
0.0
 11
27.500000321865024
 21
-26.391066743567645
 31
0.0
  0
LINE
  8
0
 62
7
 10
27.499998703598656
 20
-29.629409245615665
 30
0.0
 11
27.500000276935637
 21
-29.629409245615665
 31
0.0
  0
LINE
  8
0
 62
7
 10
27.50000008940687
 20
-30.265873857514837
 30
0.0
 11
27.500000423669757
 21
-30.265873857514837
 31
0.0
  0
LINE
  8
0
 62
7
 10
27.49999870359866
 20
-16.50000058114544
 30
0.0
 11
27.49999941885451
 21
-16.50000058114544
 31
0.0
  0
LINE
  8
0
 62
7
 10
-17.102599553886158
 20
-11.154762351796558
 30
0.0
 11
-17.102599106851283
 21
-11.154762351796558
 31
0.0
  0
LINE
  8
0
 62
7
 10
22.897400446113682
 20
-11.154762351796878
 30
0.0
 11
22.897400893148546
 21
-11.154762351796878
 31
0.0
  0
LINE
  8
0
 62
7
 10
27.499998927116113
 20
-11.154762351796915
 30
0.0
 11
27.499999552964983
 21
-11.154762351796915
 31
0.0
  0
LINE
  8
0
 62
7
 10
27.500000089406665
 20
-11.499999552965338
 30
0.0
 11
27.500000447034797
 21
-11.499999552965338
 31
0.0
  0
LINE
  8
0
 62
7
 10
-17.757362442124695
 20
-10.499999463558012
 30
0.0
 11
-17.757361995089823
 21
-10.499999463558012
 31
0.0
  0
LINE
  8
0
 62
7
 10
22.242637557875145
 20
-10.499999463558332
 30
0.0
 11
22.24263800491001
 21
-10.499999463558332
 31
0.0
  0
LINE
  8
0
 62
7
 10
27.499998927116113
 20
-10.499999463558375
 30
0.0
 11
27.500000536441778
 21
-10.499999463558375
 31
0.0
  0
LINE
  8
0
 62
7
 10
-19.757362442124688
 20
-8.499999463558005
 30
0.0
 11
-19.757361995089813
 21
-8.499999463558005
 31
0.0
  0
LINE
  8
0
 62
7
 10
20.242637557875153
 20
-8.499999463558325
 30
0.0
 11
20.242638004910017
 21
-8.499999463558325
 31
0.0
  0
LINE
  8
0
 62
7
 10
27.499998927116113
 20
-8.499999463558384
 30
0.0
 11
27.500000536441778
 21
-8.499999463558384
 31
0.0
  0
LINE
  8
0
 62
7
 10
27.499998927116113
 20
7.500000447034586
 30
0.0
 11
27.500000447034797
 21
7.500000447034586
 31
0.0
  0
LINE
  8
0
 62
7
 10
27.499998927116113
 20
8.500000536441549
 30
0.0
 11
27.500000536441778
 21
8.500000536441549
 31
0.0
  0
LINE
  8
0
 62
7
 10
27.499998927116113
 20
10.50000053644154
 30
0.0
 11
27.500000536441778
 21
10.50000053644154
 31
0.0
  0
LINE
  8
0
 62
7
 10
20.38113798983836
 20
11.309523451895734
 30
0.0
 11
20.381139983287223
 21
11.309523451895734
 31
0.0
  0
LINE
  8
0
 62
7
 10
27.499998927116113
 20
11.309523451895675
 30
0.0
 11
27.499999642371964
 21
11.309523451895675
 31
0.0
  0
LINE
  8
0
 62
7
 10
-19.61886201016178
 20
11.309523451896053
 30
0.0
 11
-19.61886001671264
 21
11.309523451896053
 31
0.0
  0
LINE
  8
0
 62
7
 10
19.618857423910168
 20
11.309523451895739
 30
0.0
 11
19.618861294905624
 21
11.309523451895739
 31
0.0
  0
LINE
  8
0
 62
7
 10
-20.381142576089655
 20
11.309523451896059
 30
0.0
 11
-20.38113870509391
 21
11.309523451896059
 31
0.0
  0
LINE
  8
0
 62
7
 10
-21.14564562985384
 20
11.999999642372252
 30
0.0
 11
-21.1456442813668
 21
11.999999642372252
 31
0.0
  0
LINE
  8
0
 62
7
 10
-21.250001296400644
 20
12.499999821186186
 30
0.0
 11
-21.250000178813877
 21
12.499999821186186
 31
0.0
  0
LINE
  8
0
 62
7
 10
27.499998927116113
 20
27.27272631355618
 30
0.0
 11
27.499999858661045
 21
27.27272631355618
 31
0.0
  0
LINE
  8
0
 62
7
 10
27.49999870359866
 20
27.699149571509118
 30
0.0
 11
27.499999552964983
 21
27.699149571509118
 31
0.0
  0
LINE
  8
0
 62
7
 10
27.49999870359866
 20
28.19914952680563
 30
0.0
 11
27.499999508261492
 21
28.19914952680563
 31
0.0
  0
LINE
  8
0
 62
7
 10
27.49999870359866
 20
28.999999508261343
 30
0.0
 11
27.499999508261492
 21
28.999999508261343
 31
0.0
  0
LINE
  8
0
 62
7
 10
27.499998927116113
 20
-20.99999968707575
 30
0.0
 11
27.500000312924325
 21
-20.99999968707575
 31
0.0
  0
LINE
  8
0
 62
7
 10
27.499998927116113
 20
-20.00000058114543
 30
0.0
 11
27.49999941885451
 21
-20.00000058114543
 31
0.0
  0
LINE
  8
0
 62
7
 10
27.499998927116113
 20
-19.500000625848912
 30
0.0
 11
27.49999937415102
 21
-19.500000625848912
 31
0.0
  0
LINE
  8
0
 62
7
 10
27.499998927116113
 20
-18.00000062584892
 30
0.0
 11
27.49999937415102
 21
-18.00000062584892
 31
0.0
  0
LINE
  8
0
 62
7
 10
27.49999991059291
 20
-18.095796134162377
 30
0.0
 11
27.500000380768046
 21
-18.095796134162377
 31
0.0
  0
LINE
  8
0
 62
7
 10
27.499998927116113
 20
-19.061721894184704
 30
0.0
 11
27.500000447034797
 21
-19.061721894184704
 31
0.0
  0
LINE
  8
0
 62
7
 10
27.499998927116113
 20
-23.561721894184682
 30
0.0
 11
27.500000447034797
 21
-23.561721894184682
 31
0.0
  0
LINE
  8
0
 62
7
 10
27.499998927116113
 20
-24.527647786740488
 30
0.0
 11
27.500000380768046
 21
-24.527647786740488
 31
0.0
  0
LINE
  8
0
 62
7
 10
27.499998927116113
 20
-26.409864631522204
 30
0.0
 11
27.499999407284395
 21
-26.409864631522204
 31
0.0
  0
LINE
  8
0
 62
7
 10
27.49999892711611
 20
25.818762766121946
 30
0.0
 11
27.499999785423135
 21
25.818762766121946
 31
0.0
  0
LINE
  8
0
 62
7
 10
27.499998927116113
 20
25.477623973793104
 30
0.0
 11
27.499999844013463
 21
25.477623973793104
 31
0.0
  0
LINE
  8
0
 62
7
 10
27.499998927116113
 20
20.67357658111422
 30
0.0
 11
27.500000144763387
 21
20.67357658111422
 31
0.0
  0
LINE
  8
0
 62
7
 10
27.499998927116113
 20
20.10000016093224
 30
0.0
 11
27.500000160932455
 21
20.10000016093224
 31
0.0
  0
LINE
  8
0
 62
7
 10
-17.757361798394534
 20
14.499999892711722
 30
0.0
 11
-17.757361351359663
 21
14.499999892711722
 31
0.0
  0
LINE
  8
0
 62
7
 10
22.242638201605306
 20
14.499999892711402
 30
0.0
 11
22.242638648640177
 21
14.499999892711402
 31
0.0
  0
LINE
  8
0
 62
7
 10
27.499998927116113
 20
14.49999989271136
 30
0.0
 11
27.49999989271151
 21
14.49999989271136
 31
0.0
  0
LINE
  8
0
 62
7
 10
27.499998927116113
 20
-14.000000447035
 30
0.0
 11
27.499999552964983
 21
-14.000000447035
 31
0.0
  0
LINE
  8
0
 62
7
 10
27.499998927116113
 20
11.999999642371863
 30
0.0
 11
27.499999642371964
 21
11.999999642371863
 31
0.0
  0
LINE
  8
0
 62
7
 10
18.854354370146
 20
11.999999642371932
 30
0.0
 11
18.85435571863304
 21
11.999999642371932
 31
0.0
  0
LINE
  8
0
 62
7
 10
-15.757361592758517
 20
12.499999687075691
 30
0.0
 11
-15.757361145723646
 21
12.499999687075691
 31
0.0
  0
LINE
  8
0
 62
7
 10
18.74999870359908
 20
12.499999687075416
 30
0.0
 11
18.74999968707549
 21
12.499999687075416
 31
0.0
  0
LINE
  8
0
 62
7
 10
27.500000277161536
 20
-25.89106678827113
 30
0.0
 11
27.499999925834278
 21
-25.89106678827113
 31
0.0
  0
LINE
  8
0
 62
7
 10
27.499999597668477
 20
-10.654762307093431
 30
0.0
 11
27.499998927116117
 21
-10.654762307093431
 31
0.0
  0
LINE
  8
0
 62
7
 10
22.397400848445066
 20
-10.65476230709339
 30
0.0
 11
22.397400401410202
 21
-10.65476230709339
 31
0.0
  0
LINE
  8
0
 62
7
 10
-17.602599151554763
 20
-10.65476230709307
 30
0.0
 11
-17.602599598589638
 21
-10.65476230709307
 31
0.0
  0
LINE
  8
0
 62
7
 10
27.49999968707545
 20
10.809523496599159
 30
0.0
 11
27.49999892711611
 21
10.809523496599159
 31
0.0
  0
LINE
  8
0
 62
7
 10
27.499999418854507
 20
-27.39282753309662
 30
0.0
 11
27.49999892711611
 21
-27.39282753309662
 31
0.0
  0
ENDBLK
  0
ENDSEC
  0
SECTION
  2
ENTITIES
  0
INSERT
  2
BODY
  8
0
 62
7
 10
0.0
 20
0.0
 30
0.0
  0
ENDSEC
  0
EOF
